<svg width="60.000000" height="93.750000" viewBox="0 0 60 93.75" fill="none" xmlns="http://www.w3.org/2000/svg" xmlns:xlink="http://www.w3.org/1999/xlink">
	<desc>
			Created with Pixso.
	</desc>
	<defs/>
	<path id="Исключить" d="M30 0C13.4314 0 0 13.4314 0 30C0 35.4644 1.46094 40.5874 4.01343 45L4.00012 45L29.9808 93.75L55.7281 45.4381C58.4402 40.928 60 35.6461 60 30C60 13.4314 46.5686 0 30 0ZM30 10C18.9543 10 10 18.9543 10 30C10 41.0457 18.9543 50 30 50C41.0457 50 50 41.0457 50 30C50 18.9543 41.0457 10 30 10Z" clip-rule="evenodd" fill="#56FDE0" fill-opacity="1.000000" fill-rule="evenodd"/>
</svg>
