<svg width="97" height="14" viewBox="0 0 97 14" fill="none" xmlns="http://www.w3.org/2000/svg">
<path d="M33.0783 0H33.9688C35.4988 0.125 37.0168 0.6465 38.2278 1.603C37.8963 2.207 37.5448 2.8 37.1958 3.394C36.3618 2.8495 35.4228 2.444 34.4293 2.3155C33.6648 2.2175 32.8633 2.251 32.1423 2.5445C31.7453 2.7095 31.3638 2.974 31.1633 3.365C30.9588 3.76 31.0718 4.263 31.3648 4.583C31.7243 4.9815 32.2358 5.1905 32.7278 5.374C33.8953 5.7855 35.1218 6.029 36.2503 6.549C36.9013 6.85 37.5288 7.2555 37.9538 7.845C38.3428 8.3785 38.5213 9.0445 38.5178 9.7C38.5318 10.5835 38.2078 11.4635 37.6358 12.135C37.0248 12.8615 36.1693 13.3465 35.2703 13.624C34.5748 13.854 33.8423 13.914 33.1198 14H32.4788C32.1178 13.944 31.7523 13.9225 31.3933 13.854C30.8003 13.746 30.2183 13.5745 29.6653 13.3345C28.9858 13.0325 28.3213 12.6765 27.7578 12.1855C28.1268 11.5835 28.5008 10.984 28.8908 10.3955C29.6963 11.0375 30.6383 11.544 31.6603 11.7255C32.4798 11.8545 33.3358 11.833 34.1308 11.5805C34.6818 11.4015 35.2178 11.083 35.5283 10.5795C35.7518 10.219 35.8578 9.7525 35.7043 9.3455C35.5308 8.9465 35.1313 8.716 34.7528 8.5425C33.9378 8.185 33.0628 8.001 32.2173 7.7315C31.2733 7.4375 30.3138 7.095 29.5393 6.4605C29.0163 6.0365 28.6203 5.4535 28.4483 4.8C28.2478 4.038 28.2683 3.1945 28.6228 2.4795C29.0398 1.6025 29.8298 0.9525 30.7018 0.5565C31.4468 0.2105 32.2653 0.0685 33.0783 0Z" fill="black"/>
<path d="M0 0.381588C1.9665 0.376088 3.933 0.381088 5.8995 0.379088C6.9125 0.380588 7.946 0.505088 8.8785 0.921088C9.5455 1.21959 10.1465 1.70859 10.4865 2.36459C10.819 2.99309 10.918 3.73059 10.821 4.43059C10.6925 5.25509 10.087 5.94409 9.35 6.30009C9.1265 6.41809 8.874 6.47159 8.657 6.60259C8.855 6.70759 9.0785 6.74209 9.289 6.81359C9.706 6.95109 10.1105 7.13159 10.479 7.37209C10.953 7.67509 11.355 8.10759 11.562 8.63609C11.839 9.34609 11.8865 10.1551 11.6245 10.8771C11.3245 11.7511 10.6365 12.4491 9.831 12.8791C8.8005 13.4346 7.6085 13.6101 6.45 13.5991C4.3 13.5986 2.15 13.5991 0 13.5991V0.381588ZM2.6465 2.55259C2.641 3.62059 2.641 4.68859 2.6465 5.75609C3.5145 5.76609 4.3825 5.75759 5.25 5.76009C5.711 5.75559 6.1785 5.78609 6.6315 5.68309C7.0455 5.59259 7.455 5.41359 7.746 5.09709C8.032 4.79559 8.1675 4.36059 8.1035 3.94909C8.0455 3.54059 7.7855 3.17909 7.443 2.95659C6.9745 2.65059 6.4015 2.55109 5.85 2.55109C4.782 2.55209 3.714 2.54909 2.6465 2.55259ZM2.6465 7.93859C2.641 9.09759 2.641 10.2571 2.6465 11.4166C3.9475 11.4321 5.2485 11.4181 6.5495 11.4236C7.161 11.4286 7.8015 11.3566 8.335 11.0351C8.7065 10.8166 8.977 10.4321 9.0415 10.0046C9.107 9.54509 9.021 9.04359 8.7235 8.67609C8.458 8.34209 8.057 8.14909 7.6505 8.04759C7.0795 7.89759 6.484 7.93909 5.9 7.93309C4.8155 7.93659 3.731 7.92559 2.6465 7.93859Z" fill="black"/>
<path d="M18.0702 0.518241C18.0982 0.462241 18.1192 0.367741 18.2037 0.382241C19.2202 0.376741 20.2377 0.383741 21.2547 0.379241C21.3402 0.378741 21.4593 0.370241 21.4773 0.481241C23.2863 4.85374 25.1023 9.22324 26.9073 13.5972C25.9618 13.5987 25.0157 13.6092 24.0702 13.5917C23.7342 12.7122 23.3802 11.8387 23.0422 10.9597C21.2127 10.9467 19.3832 10.9577 17.5537 10.9542C17.2092 10.9582 16.8637 10.9447 16.5192 10.9622C16.1837 11.8422 15.8292 12.7147 15.4922 13.5937C14.5472 13.6072 13.6018 13.5987 12.6562 13.5977C14.4558 9.23574 16.2687 4.87924 18.0702 0.518241ZM19.7592 3.20474C19.6617 3.33824 19.6213 3.50224 19.5543 3.65124C18.8583 5.33074 18.1662 7.01224 17.4672 8.69024C19.0092 8.68574 20.5512 8.68674 22.0937 8.68974C21.3617 6.91374 20.6238 5.14024 19.8918 3.36424C19.8588 3.30474 19.8447 3.20724 19.7592 3.20474Z" fill="black"/>
<path d="M40.8821 0.387104C41.7591 0.378104 42.6366 0.377604 43.5131 0.387604C43.5236 2.2396 43.5211 4.0921 43.5146 5.9441C45.7791 5.9606 48.0446 5.9481 50.3096 5.9506C50.3201 4.0996 50.3156 2.2481 50.3121 0.397104C51.1921 0.365604 52.0751 0.383604 52.9566 0.388104C52.9686 3.4596 52.9581 6.5311 52.9616 9.6026C52.9586 10.9351 52.9676 12.2676 52.9571 13.6001C52.0756 13.5996 51.1936 13.6086 50.3121 13.5956C50.3201 11.9146 50.3116 10.2336 50.3161 8.5526C50.3186 8.4081 50.3171 8.2631 50.2986 8.1191C48.0381 8.1276 45.7776 8.1231 43.5171 8.1216C43.5171 9.9481 43.5256 11.7746 43.5131 13.6006C42.6361 13.6021 41.7591 13.6021 40.8826 13.6006C40.8676 11.0351 40.8801 8.4686 40.8761 5.9026C40.8801 4.0641 40.8681 2.2256 40.8821 0.387104Z" fill="black"/>
<path d="M57.8528 0.401912C70.6683 0.394912 83.4843 0.400912 96.2998 0.399412V10.3184C96.2023 11.0929 95.9343 11.8664 95.3943 12.4464C94.7473 13.1789 93.7783 13.6084 92.8018 13.5994C81.1523 13.5994 69.5028 13.6019 57.8533 13.5979C57.8508 9.19941 57.8513 4.80091 57.8528 0.401912ZM89.5068 3.51041C89.1268 3.66041 88.7673 3.89291 88.5273 4.22891C88.1408 4.75091 88.0973 5.46441 88.2788 6.07241C88.4968 6.69241 89.0728 7.12091 89.6813 7.31941C90.3268 7.51641 90.9988 7.62641 91.6298 7.87191C91.8393 7.95941 92.0613 8.06041 92.1993 8.24991C92.3318 8.48091 92.2933 8.81141 92.0838 8.98491C91.9333 9.11541 91.7343 9.16641 91.5443 9.20441C91.0688 9.29541 90.5823 9.28091 90.1008 9.27291C89.4428 9.24441 88.7818 9.19941 88.1378 9.05291C88.1273 9.49991 88.1188 9.94791 88.1423 10.3944C89.0958 10.5864 90.0743 10.6979 91.0468 10.6249C91.7453 10.5614 92.4788 10.3974 93.0163 9.91741C93.3438 9.62541 93.5718 9.21891 93.6218 8.78041C93.6733 8.32341 93.6408 7.82341 93.3653 7.43741C93.0863 7.02691 92.6263 6.78941 92.1673 6.63691C91.5593 6.45041 90.9383 6.31041 90.3323 6.11791C90.1103 6.04141 89.8798 5.95791 89.7083 5.79191C89.5443 5.63191 89.5153 5.37891 89.5668 5.16491C89.6268 4.94941 89.8183 4.79191 90.0278 4.72941C90.4878 4.58691 90.9758 4.61041 91.4513 4.61691C92.0828 4.63991 92.7148 4.70841 93.3333 4.84341C93.3353 4.39841 93.3328 3.95391 93.3348 3.50941C92.8688 3.36441 92.3803 3.31941 91.8968 3.27741C91.0968 3.21541 90.2673 3.22441 89.5068 3.51041ZM64.1963 3.30391C64.1883 4.51941 64.1953 5.73541 64.1928 6.95091C64.2018 8.16141 64.1753 9.37341 64.2063 10.5834C64.6708 10.5764 65.1358 10.5764 65.6003 10.5834C65.6233 10.4239 65.6203 10.2619 65.6188 10.1014C65.6163 8.63491 65.6208 7.16841 65.6163 5.70241C66.7338 7.32091 67.8298 8.95441 68.9498 10.5714C69.4213 10.5764 69.8933 10.5809 70.3653 10.5684C70.3773 9.34591 70.3668 8.12341 70.3708 6.90091C70.3658 5.70141 70.3793 4.50241 70.3638 3.30341C69.8928 3.30241 69.4218 3.30191 68.9513 3.30341C68.9413 4.92141 68.9588 6.53991 68.9423 8.15791C67.8233 6.55641 66.7408 4.92841 65.6278 3.32291C65.1548 3.27541 64.6728 3.31491 64.1963 3.30391ZM71.9863 3.30341C71.9718 5.25241 71.9843 7.20191 71.9803 9.15091C71.9913 9.62791 71.9568 10.1074 71.9978 10.5829C73.7298 10.5764 75.4613 10.5754 77.1933 10.5834C77.2198 10.1399 77.2038 9.69541 77.2028 9.25141C75.9363 9.24441 74.6698 9.25291 73.4033 9.24741C73.4008 8.69991 73.3998 8.15241 73.4038 7.60491C74.4328 7.59791 75.4628 7.61191 76.4923 7.59841C76.4908 7.16141 76.4908 6.72441 76.4923 6.28741C75.4653 6.26791 74.4368 6.27791 73.4093 6.28291C73.3928 5.73541 73.4043 5.18741 73.4028 4.63941C74.6663 4.62791 75.9308 4.63391 77.1948 4.63641C77.2173 4.19291 77.2063 3.74791 77.2013 3.30391C75.4633 3.30141 73.7248 3.30291 71.9863 3.30341ZM77.8143 3.30491C78.3193 5.72791 78.8448 8.14641 79.3398 10.5719C80.0518 10.5889 80.7638 10.5734 81.4758 10.5794C81.7998 9.32491 82.1383 8.07391 82.4688 6.82091C82.5368 6.59491 82.5673 6.35591 82.6743 6.14291C83.0563 7.62141 83.4343 9.10141 83.8173 10.5799C84.4908 10.5794 85.1643 10.5769 85.8378 10.5814C86.1623 9.22891 86.4503 7.86791 86.7638 6.51291C86.9933 5.44091 87.2643 4.37691 87.4733 3.30141C87.0138 3.30241 86.5543 3.30491 86.0953 3.30041C85.7048 4.98991 85.3543 6.68941 84.9763 8.38191C84.9268 8.57541 84.9128 8.78091 84.8238 8.96241C84.4223 7.47991 84.0328 5.99391 83.6383 4.50891C82.9933 4.49641 82.3483 4.50341 81.7033 4.50541C81.2858 5.98891 80.8928 7.47941 80.4758 8.96291C80.4038 8.83541 80.3908 8.68691 80.3628 8.54591C80.0048 6.80041 79.6308 5.05791 79.2808 3.31091C78.7918 3.29391 78.3028 3.30491 77.8143 3.30491ZM61.3183 8.87141C60.7353 9.06641 60.5668 9.89191 60.9598 10.3394C61.3188 10.7649 62.1068 10.7434 62.4093 10.2614C62.6573 9.88741 62.6058 9.33491 62.2703 9.03041C62.0173 8.79941 61.6333 8.77991 61.3183 8.87141Z" fill="url(#paint0_linear)"/>
<defs>
<linearGradient id="paint0_linear" x1="57.749" y1="7.00195" x2="96.249" y2="7.00195" gradientUnits="userSpaceOnUse">
<stop stop-color="#00914F"/>
<stop offset="1" stop-color="#009CCE"/>
</linearGradient>
</defs>
</svg>
